<svg width="375" height="1475" viewBox="0 0 375 1475" fill="none" xmlns="http://www.w3.org/2000/svg">
<path d="M1862.27 47.2096L1839.58 0H-1200.58L-1223.27 47.2096C-1223.27 47.2096 -1280.01 249.44 -1132.51 310.11C-985.018 370.779 -848.875 633.701 -848.875 633.701C-848.875 633.701 -693.335 926.298 -425.197 862.448C-203.61 809.662 -13.8674 1134.46 45.3357 1248.84C75.4 1306.91 109.014 1355.55 145.425 1391.97C190.745 1437.27 251.779 1479.13 319.83 1474.09C395.489 1483.77 472.288 1414.34 521.483 1357.48C547.967 1326.86 572.641 1289.22 595.199 1245.93C656.071 1129.04 844.481 810.133 1064.21 862.471C1332.34 926.32 1487.88 633.724 1487.88 633.724C1487.88 633.724 1624.03 370.801 1771.52 310.132C1919.01 249.44 1862.27 47.2096 1862.27 47.2096Z" fill="url(#paint0_linear_33_9619)"/>
<defs>
<linearGradient id="paint0_linear_33_9619" x1="1109.74" y1="1870.31" x2="-1510.77" y2="680.239" gradientUnits="userSpaceOnUse">
<stop stop-color="white" stop-opacity="0.2"/>
<stop offset="0.3" stop-color="#EBEBEC"/>
<stop offset="0.49" stop-color="#F1E1DC"/>
<stop offset="0.79" stop-color="#F9D6CB"/>
<stop offset="1" stop-color="#FCD3C5"/>
</linearGradient>
</defs>
</svg>
