<svg width="2583" height="1075" viewBox="0 0 2583 1075" fill="none" xmlns="http://www.w3.org/2000/svg">
<path d="M2574.08 34.407L2555.22 0H27.7803L8.91626 34.407C8.91626 34.407 -38.2473 181.796 84.3716 226.012C206.991 270.229 320.174 461.85 320.174 461.85C320.174 461.85 449.481 675.098 672.397 628.564C856.613 590.093 1014.36 826.812 1063.57 910.169C1088.57 952.492 1116.51 987.944 1146.78 1014.48C1184.46 1047.5 1235.2 1078.01 1291.77 1074.34C1354.67 1081.39 1418.52 1030.79 1459.42 989.348C1481.44 967.036 1501.95 939.598 1520.7 908.047C1571.31 822.862 1727.94 590.436 1910.61 628.58C2133.53 675.115 2262.83 461.866 2262.83 461.866C2262.83 461.866 2376.02 270.245 2498.64 226.028C2621.25 181.796 2574.08 34.407 2574.08 34.407Z" fill="url(#paint0_linear_31_7671)"/>
<defs>
<linearGradient id="paint0_linear_31_7671" x1="1948.47" y1="1363.11" x2="-123.403" y2="289.82" gradientUnits="userSpaceOnUse">
<stop stop-color="white" stop-opacity="0.2"/>
<stop offset="0.3" stop-color="#EBEBEC"/>
<stop offset="0.49" stop-color="#F1E1DC"/>
<stop offset="0.79" stop-color="#F9D6CB"/>
<stop offset="1" stop-color="#FCD3C5"/>
</linearGradient>
</defs>
</svg>
