<svg width="180" height="176" viewBox="0 0 180 176" fill="none" xmlns="http://www.w3.org/2000/svg">
<g clip-path="url(#clip0_31_7955)">
<path d="M0 146.694H19.1833V152.198H5.87089V158.429H16.6672V163.932H5.87089V175.833H0V146.679V146.694Z" fill="white"/>
<path d="M38.9308 175.833L34.2036 165.024H29.4764V175.833H23.6055V146.679H38.5496C41.9654 146.679 44.329 149.029 44.329 152.425V159.263C44.329 162.022 42.7889 164.084 40.3338 164.766L45.2135 175.818H38.9003L38.9308 175.833ZM38.4886 153.562C38.4886 152.668 38.0007 152.183 37.101 152.183H29.4917V159.596H37.101C38.0007 159.596 38.4886 159.111 38.4886 158.217V153.562Z" fill="white"/>
<path d="M69.2613 146.694V152.198H55.9488V158.186H66.7452V163.69H55.9488V170.33H69.2613V175.833H50.0779V146.679H69.2613V146.694Z" fill="white"/>
<path d="M93.6141 146.694V152.198H80.3016V158.186H91.098V163.69H80.3016V170.33H93.6141V175.833H74.4307V146.679H93.6141V146.694Z" fill="white"/>
<path d="M114.048 146.694C117.464 146.694 119.827 149.044 119.827 152.44V170.087C119.827 173.483 117.464 175.833 114.048 175.833H98.7834V146.679H114.048V146.694ZM112.584 170.33C113.484 170.33 113.972 169.845 113.972 168.95V153.562C113.972 152.668 113.484 152.183 112.584 152.183H104.639V170.315H112.584V170.33Z" fill="white"/>
<path d="M140.474 146.528C143.89 146.528 146.254 148.878 146.254 152.274V170.254C146.254 173.65 143.89 176 140.474 176H130.654C127.238 176 124.875 173.65 124.875 170.254V152.274C124.875 148.878 127.238 146.528 130.654 146.528H140.474ZM140.398 153.411C140.398 152.516 139.91 152.031 139.011 152.031H132.133C131.233 152.031 130.746 152.516 130.746 153.411V169.117C130.746 170.012 131.233 170.497 132.133 170.497H139.011C139.91 170.497 140.398 170.012 140.398 169.117V153.411Z" fill="white"/>
<path d="M180 175.833H174.465V156.397L168.106 171.179H163.866L157.508 156.397V175.833H151.972V146.679H158.407L165.986 163.765L173.565 146.679H180V175.833Z" fill="white"/>
<path d="M122.023 75.5001L134.497 81.7917C134.268 84.1568 133.628 86.3551 132.667 88.3866C120.376 80.9882 117.128 82.5498 117.128 82.5498C123.029 86.0216 126.857 90.1453 129.236 93.4351C127.619 95.1786 125.683 96.6492 123.517 97.7256C119.293 91.8736 111.135 87.8257 111.135 87.8257C114.78 91.9039 117.098 96.3914 118.424 99.4691C117.143 99.7268 115.801 99.8632 114.46 99.8632C106.134 99.8632 98.997 94.8451 95.9319 87.6892C95.3067 86.2338 96.3131 84.6571 97.8685 84.3691C106.713 82.7923 108.36 72.4983 108.36 72.4983L110.906 61.1884C110.998 60.8397 111.074 60.4759 111.181 60.1272C111.181 60.1272 111.181 60.1171 111.181 60.0969C112.05 56.7767 113.194 53.7597 114.505 51.0005C114.17 53.0017 114.749 54.8967 116.198 55.9428C118.501 57.6105 122.145 56.5341 124.341 53.5474C126.156 51.0914 126.415 48.1199 125.21 46.1945C128.794 43.4505 127.162 40.5851 127.162 40.5851C125.759 43.0714 120.62 43.6779 118.79 43.8143C126.018 33.778 135.503 28.6991 140.093 26.6979C140.673 29.6543 144.5 52.2133 126.949 64.1599C130.746 67.1617 133.429 71.4977 134.283 76.4552C130.136 75.6972 122.023 75.5001 122.023 75.5001Z" fill="white"/>
<path d="M117.647 53.8961C116.64 53.1836 116.32 51.804 116.655 50.4092C116.808 50.6063 116.976 50.7882 117.174 50.9246C118.241 51.6978 119.797 51.4249 120.62 50.2727C121.459 49.1508 121.245 47.6045 120.178 46.8161C120.117 46.7706 120.041 46.7251 119.98 46.71C120.956 46.3916 121.932 46.4826 122.694 47.0284C124.143 48.0896 124.204 50.4698 122.801 52.3649C121.413 54.26 119.11 54.9422 117.647 53.881V53.8961Z" fill="white"/>
<path d="M129.892 65.1302L134.71 61.7645C134.71 61.7645 143.875 63.7202 151.637 59.263L144.119 66.6462C144.119 66.6462 134.832 68.1623 129.892 65.1302Z" fill="white"/>
<path d="M137.516 57.3527L140.23 52.7591C140.23 52.7591 149.746 53.0926 157.004 46.71L152.353 55.4577C152.353 55.4577 143.555 58.9901 137.516 57.3527Z" fill="white"/>
<path d="M141.145 49.0902L142.716 43.6778C142.716 43.6778 153.711 41.9192 160.862 34.3085L157.035 44.1326C157.035 44.1326 147.87 49.6966 141.145 49.075V49.0902Z" fill="white"/>
<path d="M142.838 40.9792L143.387 35.0969C143.387 35.0969 156.059 30.7155 161.686 21.9223L160.893 31.3826C160.893 31.3826 149.563 40.3577 142.838 40.9944V40.9792Z" fill="white"/>
<path d="M143.433 32.4893L142.716 25.6518C142.716 25.6518 155.906 13.3869 161.655 2.77441L161.259 16.0703C161.259 16.0703 158.438 24.2267 143.417 32.5045L143.433 32.4893Z" fill="white"/>
<path d="M109.717 115.752L105.508 121.816L102.382 111.416C103.328 127.349 94.2392 130.973 94.2392 130.973H94.2087C94.2087 130.973 85.1203 127.334 86.081 111.416L82.9549 121.816L78.7462 115.752C78.7462 115.752 71.6706 101.137 93.9648 98.8019C94.0563 98.8019 94.3765 98.8019 94.4832 98.8019C116.777 101.137 109.702 115.752 109.702 115.752H109.717Z" fill="white"/>
<path d="M66.7452 75.5001L54.2714 81.7917C54.5002 84.1568 55.1406 86.3551 56.1013 88.3866C68.3921 80.9882 71.6401 82.5498 71.6401 82.5498C65.7387 86.0216 61.9112 90.1453 59.5324 93.4351C61.1488 95.1786 63.0854 96.6492 65.2508 97.7256C69.4748 91.8736 77.633 87.8257 77.633 87.8257C73.9885 91.9039 71.6706 96.3914 70.3439 99.4691C71.6249 99.7268 72.9668 99.8632 74.3087 99.8632C82.6347 99.8632 89.7713 94.8451 92.8363 87.6892C93.4615 86.2338 92.4551 84.6571 90.8997 84.3691C82.0552 82.7923 80.4083 72.4983 80.4083 72.4983L77.8617 61.1884C77.7702 60.8397 77.694 60.4759 77.5873 60.1272C77.5873 60.1272 77.5873 60.1171 77.5873 60.0969C76.7181 56.7767 75.5744 53.7597 74.263 51.0005C74.5984 53.0017 74.019 54.8967 72.5703 55.9428C70.2677 57.6105 66.6232 56.5341 64.4273 53.5474C62.6127 51.0914 62.3534 48.1199 63.5581 46.1945C59.9746 43.4505 61.6062 40.5851 61.6062 40.5851C63.0091 43.0714 68.1481 43.6779 69.978 43.8143C62.7499 33.778 53.265 28.6991 48.675 26.6979C48.0956 29.6543 44.268 52.2133 61.8197 64.1599C58.0227 67.1617 55.3389 71.4977 54.4849 76.4552C58.6327 75.6972 66.7452 75.5001 66.7452 75.5001Z" fill="white"/>
<path d="M71.1216 53.8961C72.1281 53.1836 72.4483 51.804 72.1128 50.4092C71.9603 50.6063 71.7926 50.7882 71.5944 50.9246C70.5269 51.6978 68.9715 51.4249 68.1481 50.2727C67.3094 49.1508 67.5229 47.6045 68.5903 46.8161C68.6513 46.7706 68.7275 46.7251 68.7885 46.71C67.8126 46.3916 66.8367 46.4826 66.0742 47.0284C64.6255 48.0896 64.5645 50.4698 65.9675 52.3649C67.3551 54.26 69.6577 54.9422 71.1216 53.881V53.8961Z" fill="white"/>
<path d="M58.8766 65.1302L54.0579 61.7645C54.0579 61.7645 44.8932 63.7202 37.1315 59.263L44.6493 66.6462C44.6493 66.6462 53.9359 68.1623 58.8766 65.1302Z" fill="white"/>
<path d="M51.2521 57.3527L48.5378 52.7591C48.5378 52.7591 39.0224 53.0926 31.7638 46.71L36.4148 55.4577C36.4148 55.4577 45.2135 58.9901 51.2521 57.3527Z" fill="white"/>
<path d="M47.6228 49.0902L46.0522 43.6778C46.0522 43.6778 35.0576 41.9192 27.9058 34.3085L31.7333 44.1326C31.7333 44.1326 40.898 49.6966 47.6228 49.075V49.0902Z" fill="white"/>
<path d="M45.9302 40.9792L45.3812 35.0969C45.3812 35.0969 32.7092 30.7155 27.0823 21.9223L27.8753 31.3826C27.8753 31.3826 39.2053 40.3577 45.9302 40.9944V40.9792Z" fill="white"/>
<path d="M45.3355 32.4893L46.0522 25.6518C46.0522 25.6518 32.8617 13.3869 27.0976 2.77441L27.4941 16.0703C27.4941 16.0703 30.3151 24.2267 45.3355 32.5045V32.4893Z" fill="white"/>
<path d="M160.298 0L141.237 23.1503C141.237 23.1503 115.908 31.1248 109.336 58.6869L106.789 69.9967C106.789 69.9967 105.295 81.8372 94.4985 82.004C94.4527 82.004 94.3155 82.004 94.285 82.004C83.4887 81.8524 81.979 69.9967 81.979 69.9967L79.4324 58.6869C72.8601 31.1248 47.5314 23.1503 47.5314 23.1503L28.4548 0C29.6137 0.93996 48.5226 16.2371 63.2684 19.0266C79.5544 22.1346 87.5754 45.4213 87.5754 45.4213L90.0763 35.4304C90.0763 35.4304 84.7543 36.0975 84.0834 29.0478C84.0834 29.0478 88.8716 32.2619 93.4158 30.3819C95.9166 29.351 102.337 27.5469 103.678 34.7937C103.678 34.7937 99.6374 34.2176 98.7835 37.8107C98.5547 38.7809 98.6767 39.7967 98.997 40.7215C99.5002 42.1769 100.43 44.633 101.193 45.4213C101.193 45.4213 109.199 22.1346 125.5 19.0266C140.246 16.2371 159.139 0.93996 160.298 0Z" fill="white"/>
</g>
<defs>
<clipPath id="clip0_31_7955">
<rect width="180" height="176" fill="white"/>
</clipPath>
</defs>
</svg>
