<svg width="52" height="50" viewBox="0 0 52 50" fill="none" xmlns="http://www.w3.org/2000/svg">
<rect width="52" height="50" fill="#E5E5E5"/>
<rect width="1920" height="3105" transform="translate(-483 -1503)" fill="white"/>
<path d="M52 14.3513V17.3528C51.3338 25.9882 44.8744 36.641 26 50C7.12563 36.641 0.674375 25.9882 0 17.3528V14.3513C0.723125 5.33049 6.61375 0.623257 11.7081 0.123011C12.545 0.0410038 13.325 0 14.0562 0C19.9469 0 22.7663 2.56684 26 6.45399C29.2337 2.56684 32.0613 0 37.9438 0C38.675 0 39.4631 0.0410038 40.3 0.123011C45.3944 0.623257 51.285 5.33049 52 14.3513Z" fill="#CE2D2E"/>
</svg>
