<svg width="43" height="45" viewBox="0 0 43 45" fill="none" xmlns="http://www.w3.org/2000/svg">
<path fill-rule="evenodd" clip-rule="evenodd" d="M12.7399 0.485466C14.9818 0.379955 15.6956 0.353577 21.4048 0.353577C27.1123 0.353577 27.8278 0.379955 30.0696 0.485466C32.3065 0.594495 33.8345 0.967303 35.1703 1.5142C36.5528 2.07869 37.7247 2.83486 38.8933 4.06231C40.0619 5.29328 40.7808 6.52601 41.3174 7.97855C41.8373 9.38537 42.1934 10.9927 42.2954 13.3456C42.3974 15.7038 42.4208 16.4564 42.4208 22.46C42.4208 28.4636 42.3974 29.2163 42.2954 31.5745C42.1934 33.9274 41.8373 35.5347 41.3174 36.9415C40.7808 38.394 40.0619 39.6268 38.8933 40.856C37.7247 42.0852 36.5528 42.8414 35.1703 43.4058C33.8345 43.9527 32.3065 44.3273 30.0696 44.4328C27.8278 44.5419 27.1123 44.5682 21.4048 44.5682C15.6956 44.5682 14.9818 44.5419 12.7399 44.4328C10.5031 44.3273 8.97508 43.9527 7.63765 43.4058C6.25508 42.8414 5.08316 42.0852 3.91626 40.856C2.74768 39.6268 2.02881 38.394 1.4905 36.9415C0.972247 35.5347 0.616157 33.9274 0.514178 31.5745C0.412199 29.2163 0.388794 28.4636 0.388794 22.46C0.388794 16.4564 0.412199 15.7038 0.514178 13.3456C0.616157 10.9927 0.972247 9.38537 1.4905 7.97855C2.02881 6.52601 2.74768 5.29328 3.91626 4.06231C5.08316 2.83486 6.25508 2.07869 7.63765 1.5142C8.97508 0.967303 10.5031 0.594495 12.7399 0.485466ZM29.8975 4.46501C27.6807 4.35774 27.0153 4.33664 21.4048 4.33664C15.7926 4.33664 15.1289 4.35774 12.9121 4.46501C10.8625 4.56525 9.75078 4.92399 9.00851 5.22646C8.02885 5.6274 7.32837 6.10572 6.59278 6.87947C5.8572 7.65322 5.40247 8.39005 5.02131 9.4223C4.73376 10.2013 4.39104 11.3725 4.29742 13.5267C4.19712 15.8568 4.17538 16.5566 4.17538 22.46C4.17538 28.3634 4.19712 29.0615 4.29742 31.3916C4.39104 33.5493 4.73376 34.7187 5.02131 35.4977C5.40247 36.53 5.8572 37.2651 6.59278 38.0406C7.32837 38.8126 8.02885 39.2926 9.00851 39.6936C9.75078 39.9961 10.8625 40.3566 12.9121 40.455C15.1289 40.5605 15.7926 40.5834 21.4048 40.5834C27.017 40.5834 27.6807 40.5605 29.8975 40.455C31.9454 40.3566 33.0588 39.9961 33.7994 39.6936C34.7807 39.2926 35.4795 38.8126 36.2151 38.0406C36.9507 37.2651 37.4071 36.53 37.7883 35.4977C38.0758 34.7187 38.4185 33.5493 38.5122 31.3916C38.6125 29.0615 38.6342 28.3634 38.6342 22.46C38.6342 16.5566 38.6125 15.8568 38.5122 13.5267C38.4185 11.3725 38.0758 10.2013 37.7883 9.4223C37.4071 8.39005 36.9507 7.65322 36.2151 6.87947C35.4795 6.10572 34.7807 5.6274 33.7994 5.22646C33.0588 4.92399 31.9454 4.56525 29.8975 4.46501Z" fill="#979797"/>
<path fill-rule="evenodd" clip-rule="evenodd" d="M10.6117 22.4613C10.6117 16.1904 15.4448 11.1082 21.4047 11.1082C27.3646 11.1082 32.1961 16.1904 32.1961 22.4613C32.1961 28.7304 27.3646 33.8126 21.4047 33.8126C15.4448 33.8126 10.6117 28.7304 10.6117 22.4613ZM14.4 22.4613C14.4 26.5305 17.5362 29.8295 21.4047 29.8295C25.2732 29.8295 28.4095 26.5305 28.4095 22.4613C28.4095 18.3903 25.2732 15.0913 21.4047 15.0913C17.5362 15.0913 14.4 18.3903 14.4 22.4613Z" fill="#979797"/>
<path d="M35.1447 10.6592C35.1447 12.1241 34.0163 13.3129 32.6237 13.3129C31.2311 13.3129 30.101 12.1241 30.101 10.6592C30.101 9.19438 31.2311 8.00562 32.6237 8.00562C34.0163 8.00562 35.1447 9.19438 35.1447 10.6592Z" fill="#979797"/>
</svg>
