<svg width="43" height="45" viewBox="0 0 43 45" fill="none" xmlns="http://www.w3.org/2000/svg">
<path fill-rule="evenodd" clip-rule="evenodd" d="M12.7398 0.485405C14.9817 0.379894 15.6955 0.353516 21.4047 0.353516C27.1121 0.353516 27.8277 0.379894 30.0695 0.485405C32.3064 0.594434 33.8344 0.967242 35.1701 1.51414C36.5527 2.07863 37.7246 2.8348 38.8932 4.06225C40.0618 5.29322 40.7806 6.52595 41.3173 7.97849C41.8372 9.38531 42.1933 10.9926 42.2953 13.3455C42.3973 15.7037 42.4207 16.4563 42.4207 22.46C42.4207 28.4636 42.3973 29.2162 42.2953 31.5744C42.1933 33.9273 41.8372 35.5346 41.3173 36.9414C40.7806 38.394 40.0618 39.6267 38.8932 40.8559C37.7246 42.0851 36.5527 42.8413 35.1701 43.4058C33.8344 43.9527 32.3064 44.3272 30.0695 44.4328C27.8277 44.5418 27.1121 44.5682 21.4047 44.5682C15.6955 44.5682 14.9817 44.5418 12.7398 44.4328C10.503 44.3272 8.97495 43.9527 7.63753 43.4058C6.25496 42.8413 5.08304 42.0851 3.91614 40.8559C2.74756 39.6267 2.02869 38.394 1.49038 36.9414C0.972124 35.5346 0.616034 33.9273 0.514056 31.5744C0.412077 29.2162 0.388672 28.4636 0.388672 22.46C0.388672 16.4563 0.412077 15.7037 0.514056 13.3455C0.616034 10.9926 0.972124 9.38531 1.49038 7.97849C2.02869 6.52595 2.74756 5.29322 3.91614 4.06225C5.08304 2.8348 6.25496 2.07863 7.63753 1.51414C8.97495 0.967242 10.503 0.594434 12.7398 0.485405ZM29.8973 4.46495C27.6805 4.35768 27.0152 4.33658 21.4047 4.33658C15.7925 4.33658 15.1288 4.35768 12.912 4.46495C10.8624 4.56519 9.75066 4.92393 9.00839 5.2264C8.02872 5.62734 7.32825 6.10566 6.59266 6.87941C5.85708 7.65316 5.40235 8.38999 5.02118 9.42224C4.73364 10.2013 4.39092 11.3724 4.2973 13.5266C4.197 15.8567 4.17526 16.5566 4.17526 22.46C4.17526 28.3633 4.197 29.0615 4.2973 31.3915C4.39092 33.5492 4.73364 34.7187 5.02118 35.4977C5.40235 36.5299 5.85708 37.265 6.59266 38.0405C7.32825 38.8125 8.02872 39.2926 9.00839 39.6935C9.75066 39.996 10.8624 40.3565 12.912 40.455C15.1288 40.5605 15.7925 40.5833 21.4047 40.5833C27.0168 40.5833 27.6805 40.5605 29.8973 40.455C31.9453 40.3565 33.0587 39.996 33.7993 39.6935C34.7806 39.2926 35.4794 38.8125 36.215 38.0405C36.9506 37.265 37.407 36.5299 37.7881 35.4977C38.0757 34.7187 38.4184 33.5492 38.512 31.3915C38.6123 29.0615 38.6341 28.3633 38.6341 22.46C38.6341 16.5566 38.6123 15.8567 38.512 13.5266C38.4184 11.3724 38.0757 10.2013 37.7881 9.42224C37.407 8.38999 36.9506 7.65316 36.215 6.87941C35.4794 6.10566 34.7806 5.62734 33.7993 5.2264C33.0587 4.92393 31.9453 4.56519 29.8973 4.46495Z" fill="black"/>
<path fill-rule="evenodd" clip-rule="evenodd" d="M10.6118 22.4612C10.6118 16.1903 15.4449 11.1082 21.4049 11.1082C27.3648 11.1082 32.1962 16.1903 32.1962 22.4612C32.1962 28.7304 27.3648 33.8125 21.4049 33.8125C15.4449 33.8125 10.6118 28.7304 10.6118 22.4612ZM14.4001 22.4612C14.4001 26.5304 17.5363 29.8294 21.4048 29.8294C25.2734 29.8294 28.4096 26.5304 28.4096 22.4612C28.4096 18.3902 25.2734 15.0912 21.4048 15.0912C17.5363 15.0912 14.4001 18.3902 14.4001 22.4612Z" fill="black"/>
<path d="M35.1444 10.6592C35.1444 12.1241 34.0159 13.3129 32.6233 13.3129C31.2307 13.3129 30.1006 12.1241 30.1006 10.6592C30.1006 9.19438 31.2307 8.00562 32.6233 8.00562C34.0159 8.00562 35.1444 9.19438 35.1444 10.6592Z" fill="black"/>
</svg>
