<svg width="159" height="156" viewBox="0 0 159 156" fill="none" xmlns="http://www.w3.org/2000/svg">
<g clip-path="url(#clip0_12_178)">
<path d="M112.149 89.9261L126.883 97.4254V97.4417C126.61 100.236 125.859 102.859 124.716 105.277C110.198 96.4721 106.354 98.3254 106.354 98.3254C113.317 102.466 117.851 107.375 120.655 111.287C118.749 113.373 116.451 115.108 113.908 116.397C108.925 109.433 99.2766 104.61 99.2766 104.61C103.582 109.462 106.313 114.805 107.888 118.483C106.37 118.786 104.799 118.945 103.207 118.945C93.3748 118.945 84.9426 112.964 81.3224 104.438C80.5877 102.707 81.7673 100.821 83.6162 100.49C94.0646 98.6118 96.0114 86.3503 96.0114 86.3503L99.0154 72.8819C99.1174 72.4605 99.2194 72.0431 99.3337 71.6217C99.3337 71.6217 99.3283 71.6122 99.3174 71.5931H99.3337C100.358 67.6409 101.701 64.0488 103.264 60.7594C102.872 63.1487 103.554 65.4071 105.256 66.6549C107.97 68.6392 112.276 67.3627 114.876 63.8033C117.014 60.8781 117.333 57.3309 115.9 55.0439C120.133 51.7709 118.21 48.367 118.21 48.367C116.549 51.3372 110.48 52.045 108.329 52.2046C116.868 40.2581 128.075 34.203 133.495 31.8137C134.189 35.3322 138.695 62.1955 117.965 76.429C122.459 80.0047 125.622 85.1597 126.634 91.0675C121.737 90.1715 112.145 89.922 112.145 89.922L112.149 89.9261Z" fill="#231F20"/>
<path d="M106.974 64.1919C105.79 63.3369 105.399 61.7004 105.803 60.0352C105.974 60.2684 106.178 60.4853 106.411 60.6571C107.668 61.5858 109.5 61.2503 110.484 59.8879C111.468 58.5542 111.223 56.7008 109.966 55.7762C109.892 55.7189 109.807 55.6739 109.733 55.6453C110.888 55.2689 112.043 55.3712 112.941 56.0217C114.659 57.2818 114.717 60.1211 113.072 62.3795C111.423 64.6379 108.709 65.448 106.974 64.1878V64.1919Z" fill="#231F20"/>
<path d="M121.439 77.5623L127.132 73.5528C127.132 73.5528 137.964 75.8808 147.127 70.5785L138.242 79.3788C138.242 79.3788 127.271 81.1913 121.443 77.5664L121.439 77.5623Z" fill="#231F20"/>
<path d="M130.45 68.3036L133.667 62.8336C133.667 62.8336 144.907 63.2264 153.478 55.6289L147.988 66.0494C147.988 66.0494 137.589 70.2593 130.455 68.2996L130.45 68.3036Z" fill="#231F20"/>
<path d="M134.736 58.4641L136.593 52.0245C136.593 52.0245 149.572 49.938 158.033 40.8717L153.506 52.5768C153.506 52.5768 142.691 59.2047 134.736 58.4641Z" fill="#231F20"/>
<path d="M136.736 48.8047L137.377 41.7923C137.377 41.7923 152.351 36.5678 158.996 26.0941L158.065 37.3615C158.065 37.3615 144.686 48.0601 136.736 48.8047Z" fill="#231F20"/>
<path d="M137.434 38.6993L136.597 30.5536C136.597 30.5536 152.176 15.9396 158.975 3.29761L158.502 19.1267C158.502 19.1267 155.168 28.8476 137.434 38.6993Z" fill="#231F20"/>
<path d="M97.6154 137.855L92.6442 145.08L88.9587 132.7C90.0729 151.671 79.3387 156 79.3387 156H79.3102C79.3102 156 68.576 151.671 69.7025 132.7L66.0047 145.08L61.0336 137.855C61.0336 137.855 52.6707 120.451 79.0204 117.669C79.1224 117.653 79.4979 117.653 79.6408 117.669C105.974 120.451 97.6113 137.855 97.6113 137.855H97.6154Z" fill="#231F20"/>
<path d="M99.3337 71.5931V71.6218C99.3337 71.6218 99.3174 71.6054 99.3174 71.5931H99.3337Z" fill="#231F20"/>
<path d="M46.8506 89.9261L32.1167 97.4254V97.4417C32.3902 100.236 33.1411 102.859 34.2839 105.277C48.8016 96.4721 52.6463 98.3254 52.6463 98.3254C45.6833 102.466 41.1489 107.375 38.3449 111.287C40.251 113.373 42.5488 115.108 45.0915 116.397C50.075 109.433 59.7234 104.61 59.7234 104.61C55.4175 109.462 52.6871 114.805 51.1116 118.483C52.6299 118.786 54.2013 118.945 55.793 118.945C65.6252 118.945 74.0574 112.964 77.6776 104.438C78.4123 102.707 77.2328 100.821 75.3839 100.49C64.9354 98.6118 62.9886 86.3503 62.9886 86.3503L59.9847 72.8819C59.8826 72.4605 59.7806 72.0431 59.6663 71.6217C59.6663 71.6217 59.6717 71.6122 59.6826 71.5931H59.6663C58.6419 67.6409 57.2991 64.0488 55.7359 60.7594C56.1277 63.1487 55.4461 65.4071 53.7442 66.6549C51.03 68.6392 46.7241 67.3627 44.1242 63.8033C41.9856 60.8781 41.6672 57.3309 43.0998 55.0439C38.8674 51.7709 40.7897 48.367 40.7897 48.367C42.4509 51.3372 48.5199 52.045 50.6708 52.2046C42.1325 40.2581 30.9249 34.203 25.5048 31.8137C24.8109 35.3322 20.3051 62.1955 41.0346 76.429C36.541 80.0047 33.3779 85.1597 32.3657 91.0675C37.2634 90.1715 46.8547 89.922 46.8547 89.922L46.8506 89.9261Z" fill="#231F20"/>
<path d="M52.0259 64.1919C53.2095 63.3369 53.6014 61.7004 53.1973 60.0352C53.0259 60.2684 52.8218 60.4853 52.5892 60.6571C51.3321 61.5858 49.4995 61.2503 48.5159 59.8879C47.5323 58.5542 47.7772 56.7008 49.0342 55.7762C49.1077 55.7189 49.1934 55.6739 49.2669 55.6453C48.1118 55.2689 46.9568 55.3712 46.0589 56.0217C44.3406 57.2818 44.2835 60.1211 45.9283 62.3795C47.5772 64.6379 50.2913 65.448 52.0259 64.1878V64.1919Z" fill="#231F20"/>
<path d="M37.5613 77.5623L31.8677 73.5528C31.8677 73.5528 21.0356 75.8808 11.8728 70.5785L20.7581 79.3788C20.7581 79.3788 31.7289 81.1913 37.5572 77.5664L37.5613 77.5623Z" fill="#231F20"/>
<path d="M28.5496 68.3036L25.3334 62.8336C25.3334 62.8336 14.0932 63.2264 5.52222 55.6289L11.0117 66.0494C11.0117 66.0494 21.4112 70.2593 28.5455 68.2996L28.5496 68.3036Z" fill="#231F20"/>
<path d="M24.264 58.4641L22.407 52.0245C22.407 52.0245 9.42808 49.938 0.967285 40.8717L5.49358 52.5768C5.49358 52.5768 16.3094 59.2047 24.264 58.4641Z" fill="#231F20"/>
<path d="M22.2642 48.8047L21.6234 41.7923C21.6234 41.7923 6.64864 36.5678 0 26.0941L0.930564 37.3615C0.930564 37.3615 14.3095 48.0601 22.2601 48.8047H22.2642Z" fill="#231F20"/>
<path d="M21.5663 38.6993L22.403 30.5536C22.403 30.5536 6.82827 15.9396 0.0245361 3.30164L0.497981 19.1307C0.497981 19.1307 3.8325 28.8516 21.5663 38.7034V38.6993Z" fill="#231F20"/>
<path d="M157.372 0L134.85 27.571C134.85 27.571 104.933 37.071 97.1624 69.8993L94.1585 83.3677C94.1585 83.3677 92.3953 97.4703 79.6409 97.6585C79.5837 97.6626 79.4327 97.6626 79.3797 97.6585C66.6252 97.4703 64.8457 83.3677 64.8457 83.3677L61.8418 69.8993C54.0708 37.071 24.1539 27.571 24.1539 27.571L1.62854 0C2.9999 1.11692 25.3335 19.3312 42.757 22.6615C62.001 26.3682 71.4617 54.0988 71.4617 54.0988L74.4085 42.1973C74.4085 42.1973 68.1231 42.9951 67.3313 34.5957C67.3313 34.5957 72.9922 38.417 78.3552 36.1872C81.302 34.9558 88.9016 32.812 90.477 41.4445C90.477 41.4445 85.6936 40.749 84.6978 45.0367C84.4243 46.1945 84.5671 47.3973 84.959 48.5101C85.5508 50.2489 86.6487 53.1742 87.5466 54.0988C87.5466 54.0988 97.0073 26.3682 116.263 22.6615C133.679 19.3312 155.996 1.11692 157.372 0Z" fill="#231F20"/>
<path d="M59.6664 71.5931V71.6218C59.6664 71.6218 59.6827 71.6054 59.6827 71.5931H59.6664Z" fill="#231F20"/>
</g>
<defs>
<clipPath id="clip0_12_178">
<rect width="159" height="156" fill="white"/>
</clipPath>
</defs>
</svg>
