<svg width="30" height="33" viewBox="0 0 30 33" fill="none" xmlns="http://www.w3.org/2000/svg">
<path d="M29.4993 29.4045L21.3138 19.5068C23.0254 17.4465 24.0559 14.8033 24.0559 11.9292C24.0559 5.34418 18.6707 0 12.0279 0C5.38521 0 0 5.34418 0 11.9292C0 18.5142 5.38521 23.8526 12.0279 23.8526C14.1646 23.8526 16.1731 23.2985 17.9138 22.329L26.0644 32.192C26.8387 33.1327 28.2418 33.2713 29.1849 32.5037C30.1339 31.7303 30.2736 30.3452 29.4993 29.4045ZM12.0512 19.9916C7.45197 19.9916 3.72016 16.2922 3.72016 11.7329C3.72016 7.17366 7.45197 3.47429 12.0512 3.47429C16.6505 3.47429 20.3823 7.17366 20.3823 11.7329C20.3823 16.2922 16.6505 19.9916 12.0512 19.9916Z" fill="#979797"/>
</svg>
