<svg width="48" height="42" viewBox="0 0 48 42" fill="none" xmlns="http://www.w3.org/2000/svg">
<path d="M14.9434 39.4215C32.5747 39.4215 42.2183 24.3663 42.2183 11.3105C42.2183 10.8829 42.2183 10.4572 42.1903 10.0335C44.0663 8.63487 45.6858 6.90315 46.9728 4.9194C45.2233 5.71839 43.3674 6.24237 41.467 6.47384C43.4681 5.23911 44.9658 3.2971 45.6814 1.00921C43.7997 2.16003 41.7411 2.97107 39.5943 3.40733C36.6229 0.150886 31.9014 -0.646141 28.0773 1.46318C24.2531 3.5725 22.2775 8.06358 23.2582 12.4181C15.5506 12.0199 8.36944 8.26776 3.50191 2.09559C0.957613 6.60992 2.25719 12.3851 6.46974 15.2843C4.94422 15.2377 3.45197 14.8135 2.11891 14.0477C2.11891 14.0881 2.11891 14.1305 2.11891 14.1729C2.12016 18.8759 5.33671 22.9265 9.80949 23.8578C8.39821 24.2545 6.91749 24.3125 5.48108 24.0273C6.7369 28.0519 10.3357 30.809 14.4369 30.8884C11.0425 33.6379 6.84924 35.1306 2.53194 35.1261C1.76925 35.1246 1.00729 35.077 0.25 34.9835C4.63379 37.883 9.73457 39.4209 14.9434 39.4138" fill="black"/>
</svg>
